HIERARCHY
ROOT hip
{
  OFFSET 1.77447 88.4679 -15.7696
  CHANNELS 6 Xposition Yposition Zposition Zrotation Xrotation Yrotation
  JOINT abdomen
  {
    OFFSET 0 6.09653 0.699602
    CHANNELS 3 Zrotation Xrotation Yrotation
    JOINT chest
    {
      OFFSET 0 2.49857 -0.699602
      CHANNELS 3 Zrotation Xrotation Yrotation
      JOINT rCollar
      {
        OFFSET -1.49915 11.2936 -1.69903
        CHANNELS 3 Zrotation Xrotation Yrotation
        JOINT rShldr
        {
          OFFSET -4.89721 -0.299829 0.799545
          CHANNELS 3 Zrotation Xrotation Yrotation
          JOINT rForeArm
          {
            OFFSET -12.4216 -1.19922 0.931564
            CHANNELS 3 Zrotation Xrotation Yrotation
            JOINT rHand
            {
              OFFSET -9.86568 0.0998477 3.66582
              CHANNELS 3 Zrotation Xrotation Yrotation
              JOINT rPinky1
              {
                OFFSET -3.29812 0.0999423 -0.399772
                CHANNELS 3 Zrotation Xrotation Yrotation
                JOINT rPinky2
                {
                  OFFSET -0.899492 -0.0999405 0
                  CHANNELS 3 Zrotation Xrotation Yrotation
                  End Site
                  {
                    OFFSET -0.999429 -0.0999421 0
                  }
                }
              }
              JOINT rRing1
              {
                OFFSET -3.39807 0.399775 0.299829
                CHANNELS 3 Zrotation Xrotation Yrotation
                JOINT rRing2
                {
                  OFFSET -1.29926 -0.199888 0.399772
                  CHANNELS 3 Zrotation Xrotation Yrotation
                  End Site
                  {
                    OFFSET -0.899487 -0.0999402 0.199886
                  }
                }
              }
              JOINT rMid1
              {
                OFFSET -2.99829 0.499717 1.09937
                CHANNELS 3 Zrotation Xrotation Yrotation
                JOINT rMid2
                {
                  OFFSET -1.45827 -0.0999391 0.600149
                  CHANNELS 3 Zrotation Xrotation Yrotation
                  End Site
                  {
                    OFFSET -1.0403 -0.0999474 0.399282
                  }
                }
              }
              JOINT rIndex1
              {
                OFFSET -2.69847 0.399775 2.09881
                CHANNELS 3 Zrotation Xrotation Yrotation
                JOINT rIndex2
                {
                  OFFSET -1.33823 -0.200883 0.6843
                  CHANNELS 3 Zrotation Xrotation Yrotation
                  End Site
                  {
                    OFFSET -0.760569 0.00099747 0.415074
                  }
                }
              }
              JOINT rThumb1
              {
                OFFSET -0.399773 -0.39977 1.19932
                CHANNELS 3 Zrotation Xrotation Yrotation
                JOINT rThumb2
                {
                  OFFSET -0.998132 0 1.47145
                  CHANNELS 3 Zrotation Xrotation Yrotation
                  End Site
                  {
                    OFFSET -0.977841 -0.278837 0.829828
                  }
                }
              }
            }
          }
        }
      }
      JOINT lCollar
      {
        OFFSET 1.49915 11.2936 -1.69903
        CHANNELS 3 Zrotation Xrotation Yrotation
        JOINT lShldr
        {
          OFFSET 4.89721 -0.299833 0.799545
          CHANNELS 3 Zrotation Xrotation Yrotation
          JOINT lForeArm
          {
            OFFSET 12.4216 -1.19922 0.931564
            CHANNELS 3 Zrotation Xrotation Yrotation
            JOINT lHand
            {
              OFFSET 9.86568 0.0998482 3.66582
              CHANNELS 3 Zrotation Xrotation Yrotation
              JOINT lIndex1
              {
                OFFSET 2.69846 0.399775 2.09881
                CHANNELS 3 Zrotation Xrotation Yrotation
                JOINT lIndex2
                {
                  OFFSET 1.33823 -0.200884 0.6843
                  CHANNELS 3 Zrotation Xrotation Yrotation
                  End Site
                  {
                    OFFSET 0.760567 0.00099574 0.415074
                  }
                }
              }
              JOINT lMid1
              {
                OFFSET 2.99829 0.499714 1.09937
                CHANNELS 3 Zrotation Xrotation Yrotation
                JOINT lMid2
                {
                  OFFSET 1.45827 -0.0999388 0.600149
                  CHANNELS 3 Zrotation Xrotation Yrotation
                  End Site
                  {
                    OFFSET 1.04031 -0.0999473 0.399282
                  }
                }
              }
              JOINT lThumb1
              {
                OFFSET 0.399772 -0.399773 1.19932
                CHANNELS 3 Zrotation Xrotation Yrotation
                JOINT lThumb2
                {
                  OFFSET 0.99813 0 1.47145
                  CHANNELS 3 Zrotation Xrotation Yrotation
                  End Site
                  {
                    OFFSET 0.97784 -0.27884 0.829828
                  }
                }
              }
              JOINT lPinky1
              {
                OFFSET 3.29812 0.0999421 -0.399772
                CHANNELS 3 Zrotation Xrotation Yrotation
                JOINT lPinky2
                {
                  OFFSET 0.899488 -0.0999427 0
                  CHANNELS 3 Zrotation Xrotation Yrotation
                  End Site
                  {
                    OFFSET 0.999427 -0.0999418 0
                  }
                }
              }
              JOINT lRing1
              {
                OFFSET 3.39806 0.399773 0.299829
                CHANNELS 3 Zrotation Xrotation Yrotation
                JOINT lRing2
                {
                  OFFSET 1.29926 -0.199886 0.399772
                  CHANNELS 3 Zrotation Xrotation Yrotation
                  End Site
                  {
                    OFFSET 0.899489 -0.0999425 0.199886
                  }
                }
              }
            }
          }
        }
      }
      JOINT neck
      {
        OFFSET 0 12.4929 -0.499715
        CHANNELS 3 Zrotation Xrotation Yrotation
        JOINT head
        {
          OFFSET 0 3.59795 0.299829
          CHANNELS 3 Zrotation Xrotation Yrotation
          JOINT leftEye
          {
            OFFSET 1.19932 3.69789 3.19818
            CHANNELS 3 Zrotation Xrotation Yrotation
            End Site
            {
              OFFSET 0 0 0
            }
          }
          JOINT rightEye
          {
            OFFSET -1.19932 3.69789 3.19818
            CHANNELS 3 Zrotation Xrotation Yrotation
            End Site
            {
              OFFSET 0 0 0
            }
          }
        }
      }
    }
  }
  JOINT rButtock
  {
    OFFSET -4.19761 -0.599656 -0.299829
    CHANNELS 3 Zrotation Xrotation Yrotation
    JOINT rThigh
    {
      OFFSET 0 -1.49915 0
      CHANNELS 3 Zrotation Xrotation Yrotation
      JOINT rShin
      {
        OFFSET 0.699602 -17.6899 -1.09938
        CHANNELS 3 Zrotation Xrotation Yrotation
        JOINT rFoot
        {
          OFFSET -0.699602 -18.0897 -0.699602
          CHANNELS 3 Zrotation Xrotation Yrotation
          End Site
          {
            OFFSET 0 -2.09881 5.59681
          }
        }
      }
    }
  }
  JOINT lButtock
  {
    OFFSET 4.19761 -0.599656 -0.299829
    CHANNELS 3 Zrotation Xrotation Yrotation
    JOINT lThigh
    {
      OFFSET 0 -1.49914 0
      CHANNELS 3 Zrotation Xrotation Yrotation
      JOINT lShin
      {
        OFFSET -0.699602 -17.6899 -1.09937
        CHANNELS 3 Zrotation Xrotation Yrotation
        JOINT lFoot
        {
          OFFSET 0.699602 -18.0897 -0.699602
          CHANNELS 3 Zrotation Xrotation Yrotation
          End Site
          {
            OFFSET 0 -2.0988 5.59681
          }
        }
      }
    }
  }
}
MOTION
Frames:	5
Frame Time:	0.0333333
0.790066 87.8912 -12.4779 6.11137 27.8426 -3.50051 -0.00975517 -0.00975351 -0.00975351 -1.7746 16.3081 -0.48113 -0.255171 -0.211596 14.0623 66.8039 1.62557 25.5512 22.9887 8.97569 93.6488 -13.9839 -1.27623 -32.9168 1.83969 1.02684 28.0275 0.632307 -0.00953168 -0.000952461 1.84463 1.02332 28.0095 2.42706 -0.497593 4.4329 1.83855 1.02151 28.0115 -0.243675 0.394432 1.44876 1.84104 1.04198 28.023 8.61174 -0.0019031 -1.79828 1.8765 1.0053 28.0257 -9.40282 -7.91099 -0.69994 1.90888 -0.115148 -23.1712 -57.1214 9.56022 -22.2983 -28.0694 9.99502 -90.3714 49.4926 -14.6582 9.66043 -1.90205 1.09722 -28.0878 -8.62264 -0.0232654 1.79819 -1.91292 1.08254 -28.0857 0.181555 0.424301 -1.45108 -1.87818 1.06148 -28.0917 9.40787 -7.94586 0.599069 -1.89069 1.08181 -28.0686 -0.629806 -0.00995832 0.0010087 -1.90889 1.07498 -28.0899 -2.42818 -0.502406 -4.43241 1.96951 -16.2927 1.00584 0.787152 -55.0375 -10.1344 0 0 0 0 0 0 -0.00975517 -0.00969887 -0.00983547 -164.899 -69.5236 -165.123 23.3936 82.6634 -13.7846 -5.08045 1.70973 0.205868 -0.00975517 -0.00983547 -0.00969887 148.455 -71.5883 161.463 -22.6658 81.6502 6.13172 4.87532 1.64081 -0.194628 
0.823575 87.8742 -12.4477 6.13091 27.8719 -3.48106 -0.00975517 -0.00975351 -0.00975351 -1.60867 16.4645 -0.520193 -0.135774 -0.189063 13.8894 67.7439 -0.179634 25.1324 16.2367 7.29039 99.9288 -11.0112 -1.03213 -33.348 1.83969 1.02684 28.0275 0.632351 -0.00953168 -0.000952461 1.84463 1.02332 28.0095 2.42706 -0.497593 4.4329 1.83855 1.02151 28.0115 -0.243675 0.394432 1.44876 1.84104 1.04198 28.023 8.61174 -0.0019031 -1.79828 1.8765 1.0053 28.0257 -9.40282 -7.91099 -0.69994 1.93684 -0.12357 -23.2531 -57.0814 9.65909 -21.9694 -24.8151 9.07555 -91.6272 48.2187 -13.7919 10.6323 -1.90205 1.09723 -28.0878 -8.6227 -0.0232654 1.79819 -1.91292 1.08254 -28.0857 0.181555 0.424301 -1.45108 -1.87818 1.06148 -28.0917 9.40787 -7.94586 0.599069 -1.8907 1.08181 -28.0686 -0.629806 -0.00995832 0.0010087 -1.90889 1.07498 -28.0899 -2.42826 -0.502406 -4.43241 1.81186 -16.4497 1.0045 0.84543 -54.6644 -10.4428 0 0 0 0 0 0 -0.00975517 -0.00969887 -0.00983547 -165.596 -69.4959 -165.443 23.5785 82.7495 -14.2435 -4.85131 1.64263 0.193364 -0.00975517 -0.00983547 -0.00969887 148.642 -71.5704 161.7 -22.8726 81.7323 6.35893 4.93348 1.57261 -0.19741 
0.857008 87.8595 -12.414 6.14068 27.9305 -3.46066 -0.00975517 -0.00975351 -0.00975351 -1.3939 16.6403 -0.559261 0.0635849 -0.150588 13.7176 68.5223 -2.00834 25.1443 12.7414 6.41163 106.339 -8.77634 -0.792819 -34.7193 1.83969 1.02684 28.0275 0.632392 -0.00953168 -0.000952461 1.84463 1.02332 28.0095 2.42707 -0.497593 4.4329 1.83855 1.02151 28.0115 -0.243675 0.394432 1.44876 1.84104 1.04198 28.023 8.61175 -0.0019031 -1.79828 1.8765 1.0053 28.0257 -9.40282 -7.91099 -0.69994 1.82035 -0.0896379 -23.2669 -56.8544 9.87063 -21.6866 -20.9464 7.7984 -93.0213 43.8641 -11.6435 12.5508 -1.90205 1.09723 -28.0878 -8.62278 -0.0232654 1.79819 -1.91292 1.08254 -28.0857 0.181555 0.424301 -1.45108 -1.87818 1.06148 -28.0917 9.40787 -7.94586 0.599069 -1.8907 1.0818 -28.0686 -0.629806 -0.00995832 0.0010087 -1.90889 1.07498 -28.0899 -2.42834 -0.502406 -4.43241 1.61244 -16.6264 0.985943 0.891882 -54.2099 -10.8502 0 0 0 0 0 0 -0.00975517 -0.00969887 -0.00983547 -166.493 -69.4784 -165.892 23.7459 82.8364 -14.7686 -4.55264 1.54592 0.17746 -0.00975517 -0.00983547 -0.00969887 148.871 -71.5335 161.982 -23.0891 81.8143 6.56828 5.02136 1.48579 -0.201565 
0.894788 87.8474 -12.3832 6.16996 27.9891 -3.46079 -0.00975517 -0.00975351 -0.00975351 -1.15962 16.8357 -0.588544 0.270687 -0.111666 13.5151 69.2136 -3.63109 25.5114 12.7863 7.77526 112.174 -7.10494 -0.741479 -34.0197 1.83969 1.02684 28.0275 0.632431 -0.00953168 -0.000952461 1.84463 1.02332 28.0095 2.42708 -0.497593 4.4329 1.83855 1.02151 28.0115 -0.243675 0.394432 1.44876 1.84104 1.04198 28.023 8.61176 -0.0019031 -1.79828 1.8765 1.0053 28.0257 -9.40282 -7.91099 -0.69994 1.56865 -0.0162147 -23.2121 -56.4309 10.2428 -21.4991 -16.5401 6.12 -94.489 37.0409 -8.68859 15.5947 -1.90205 1.09723 -28.0878 -8.62297 -0.0232654 1.79819 -1.91292 1.08254 -28.0857 0.181555 0.424301 -1.45108 -1.87818 1.06148 -28.0917 9.40787 -7.94586 0.599069 -1.8907 1.0818 -28.0686 -0.629806 -0.00995832 0.0010087 -1.90889 1.07498 -28.0899 -2.42852 -0.502406 -4.43241 1.37108 -16.8228 0.949541 0.871866 -53.5896 -11.2967 0 0 0 0 0 0 -0.00975517 -0.00969887 -0.00983547 -167.53 -69.4509 -166.402 23.8175 82.8966 -15.2446 -4.20425 1.46925 0.15947 -0.00975517 -0.00983547 -0.00969887 149.111 -71.4965 162.283 -23.2267 81.8691 6.74644 5.07917 1.41754 -0.204164 
0.922839 87.8349 -12.3531 6.18948 28.0965 -3.43157 -0.00975517 -0.00975351 -0.00975351 -0.915556 17.0214 -0.608057 0.533288 -0.0616857 13.3502 69.7932 -4.94907 26.0511 13.2854 9.84375 117.619 -5.28787 -0.70213 -32.2052 1.83969 1.02684 28.0275 0.632468 -0.00953168 -0.000952461 1.84463 1.02332 28.0095 2.42709 -0.497593 4.4329 1.83855 1.02151 28.0115 -0.243675 0.394432 1.44876 1.84104 1.04198 28.023 8.61177 -0.0019031 -1.79828 1.8765 1.0053 28.0257 -9.40282 -7.91099 -0.69994 1.41138 0.0295491 -23.1932 -56.0752 10.6687 -21.2578 -12.3977 4.3573 -95.8873 29.2867 -5.93122 19.0024 -1.90205 1.09723 -28.0878 -8.62319 -0.0232654 1.79819 -1.91292 1.08254 -28.0857 0.181555 0.424301 -1.45108 -1.87818 1.06148 -28.0917 9.40787 -7.94586 0.599069 -1.8907 1.08179 -28.0686 -0.629806 -0.00995832 0.0010087 -1.90889 1.07498 -28.0899 -2.42872 -0.502406 -4.43241 1.128 -17.019 0.901366 0.753888 -52.8304 -11.8716 0 0 0 0 0 0 -0.00975517 -0.00969887 -0.00983547 -168.658 -69.3856 -166.984 23.9093 82.9664 -15.7769 -3.80653 1.39244 0.139443 -0.00975517 -0.00983547 -0.00969887 149.302 -71.4212 162.564 -23.4029 81.9321 6.89664 5.16728 1.36887 -0.208344 
